<?xml version="1.0" encoding="utf-8"?><!-- Uploaded to: SVG Repo, www.svgrepo.com, Generator: SVG Repo Mixer Tools -->
<svg width="96px" height="96px" viewBox="0 0 36 36" xmlns="http://www.w3.org/2000/svg" xmlns:xlink="http://www.w3.org/1999/xlink" aria-hidden="true" role="img" class="iconify iconify--twemoji" preserveAspectRatio="xMidYMid meet"><path fill="#31373D" d="M32.769 33.359c-2.739-3.286-3.903-6.569-4.397-8.746a1 1 0 0 0-1.336-.711l-7.112 2.749a1 1 0 0 0-.609.688c-.079.315-.019.665.211.896C25.492 34.216 31.945 35 32 35a1.002 1.002 0 0 0 .769-1.641z"></path><ellipse fill="#31373D" cx="18" cy="16" rx="18" ry="14"></ellipse><circle fill="#31373D" cx="18" cy="16" r="5"></circle><path fill="#FFF" d="M18 7c-4.963 0-9 4.037-9 9s4.037 9 9 9s9-4.037 9-9s-4.037-9-9-9zm0 14a5 5 0 1 1 .001-10.001A5 5 0 0 1 18 21z"></path></svg>
